<svg width="71" height="33" viewBox="0 0 71 33" fill="none" xmlns="http://www.w3.org/2000/svg">
<path id="Vector" fill-rule="evenodd" clip-rule="evenodd" d="M40.9309 5.10241V10.2048L47.4141 10.208C51.2739 10.21 54.1461 10.2655 54.5122 10.3454C55.5449 10.5704 56.6009 11.1207 57.4842 11.8938C58.4506 12.7397 58.9356 13.4571 59.3101 14.5949C59.5574 15.3462 59.5742 15.9472 59.5742 24.066V32.7349H65.0521H70.53L70.4839 23.7232L70.4377 14.7117L62.6584 7.35582L54.8794 0H47.9051H40.9309V5.10241ZM11.214 5.23136V10.3373H5.60698H0V21.6687V33H5.60698H11.214V21.6627V10.3254L17.9774 10.3645C24.5397 10.4024 24.7649 10.4122 25.5514 10.6933C26.8428 11.1548 28.0604 12.0588 28.7748 13.0863C29.9871 14.8303 29.9165 14.177 29.9654 24.0873L30.0087 32.8675H35.4027H40.7965L40.7586 23.8555L40.7207 14.8437L32.976 7.52121L25.2313 0.198795L18.2227 0.162085L11.214 0.125373V5.23136ZM67.8152 0.263471C66.7028 0.580615 65.9221 1.69294 66.0745 2.74403C66.3711 4.79003 68.8641 5.59104 70.2903 4.09863C71.2513 3.09285 71.2349 1.78041 70.2499 0.894314C69.4937 0.213904 68.7056 0.00980806 67.8152 0.263471ZM69.1123 0.52959C70.1925 0.813337 70.9125 2.00186 70.622 3.02155C70.191 4.53426 68.2375 5.06583 67.0297 3.9991C65.8574 2.96377 66.2651 1.10172 67.7745 0.596784C68.4575 0.368302 68.4917 0.366579 69.1123 0.52959ZM67.7043 2.45181C67.7043 3.48263 67.7425 3.71084 67.9146 3.71084C68.0664 3.71084 68.1249 3.56361 68.1249 3.18072C68.1249 2.71899 68.1655 2.65073 68.4403 2.65166C68.6607 2.65233 68.8518 2.81189 69.0752 3.18179C69.251 3.47268 69.4559 3.71084 69.5308 3.71084C69.7194 3.71084 69.7055 3.65545 69.3893 3.14905C69.1131 2.70627 69.1131 2.70388 69.3893 2.48017C69.76 2.18012 69.7433 1.6561 69.3551 1.39912C69.1789 1.28223 68.7532 1.19277 68.3739 1.19277H67.7043V2.45181ZM69.1662 1.66603C69.2873 1.78067 69.3864 1.91784 69.3864 1.97085C69.3864 2.1947 69.0186 2.38554 68.5874 2.38554C68.1522 2.38554 68.1249 2.35811 68.1249 1.92169C68.1249 1.49719 68.1596 1.45783 68.5355 1.45783C68.7611 1.45783 69.045 1.55153 69.1662 1.66603Z" fill="white"/>
</svg>
