<svg width="61" height="29" viewBox="0 0 61 29" fill="none" xmlns="http://www.w3.org/2000/svg">
<path id="Vector" fill-rule="evenodd" clip-rule="evenodd" d="M35.166 4.48393V8.96785L40.736 8.97067C44.0522 8.97244 46.5199 9.02118 46.8344 9.09142C47.7217 9.28918 48.629 9.77276 49.3879 10.4521C50.2181 11.1955 50.6348 11.826 50.9566 12.8258C51.1691 13.486 51.1835 14.0142 51.1835 21.1489V28.767H55.8898H60.5962L60.5566 20.8477L60.5169 12.9284L53.8333 6.46421L47.1499 0H41.1579H35.166V4.48393ZM9.63455 4.59726V9.08433H4.81727H0V19.0422V29H4.81727H9.63455V19.0369V9.07386L15.4454 9.10818C21.0834 9.14153 21.2769 9.15014 21.9526 9.39713C23.0621 9.80272 24.1082 10.5971 24.722 11.5001C25.7636 13.0327 25.7029 12.4586 25.7449 21.1677L25.7821 28.8835H30.4164H35.0505L35.0179 20.9639L34.9854 13.0444L28.3315 6.60955L21.6776 0.174698L15.6561 0.142438L9.63455 0.110177V4.59726ZM58.2638 0.231535C57.3081 0.510237 56.6373 1.48773 56.7682 2.41142C57.023 4.20942 59.165 4.91334 60.3903 3.60182C61.2159 2.71796 61.2018 1.56461 60.3556 0.785912C59.7058 0.187976 59.0287 0.00861922 58.2638 0.231535ZM59.3781 0.465398C60.3062 0.714751 60.9248 1.75921 60.6753 2.6553C60.3049 3.98465 58.6266 4.45179 57.5889 3.51436C56.5817 2.60452 56.9319 0.968181 58.2288 0.524446C58.8156 0.323659 58.8449 0.322145 59.3781 0.465398ZM58.1685 2.15462C58.1685 3.06049 58.2013 3.26104 58.3492 3.26104C58.4796 3.26104 58.5298 3.13165 58.5298 2.79518C58.5298 2.38942 58.5647 2.32943 58.8008 2.33025C58.9902 2.33083 59.1544 2.47106 59.3463 2.79612C59.4973 3.05175 59.6734 3.26104 59.7377 3.26104C59.8998 3.26104 59.8878 3.21236 59.6162 2.76735C59.3789 2.37823 59.3789 2.37614 59.6162 2.17954C59.9347 1.91586 59.9203 1.45536 59.5868 1.22953C59.4354 1.12681 59.0697 1.04819 58.7438 1.04819H58.1685V2.15462ZM59.4245 1.46409C59.5285 1.56483 59.6137 1.68538 59.6137 1.73196C59.6137 1.92868 59.2977 2.09639 58.9272 2.09639C58.5533 2.09639 58.5298 2.07228 58.5298 1.68876C58.5298 1.31571 58.5597 1.28112 58.8826 1.28112C59.0764 1.28112 59.3203 1.36347 59.4245 1.46409Z" fill="#FF6A6A"/>
</svg>
