<svg width="48" height="48" viewBox="0 0 48 48" fill="none" xmlns="http://www.w3.org/2000/svg">
<g id="WhatsApp">
<rect id="Rectangle" width="48" height="48" rx="24" fill="#0DC143"/>
<path id="Vector" d="M34.7504 13.2115C32.1775 10.5628 28.6207 9.125 24.9883 9.125C17.2694 9.125 11.064 15.4061 11.1396 23.0493C11.1396 25.4709 11.8207 27.8169 12.9558 29.9358L10.9883 37.125L18.3288 35.2331C20.3721 36.3682 22.6423 36.898 24.9126 36.898C32.5558 36.898 38.7613 30.6169 38.7613 22.9736C38.7613 19.2655 37.3234 15.7845 34.7504 13.2115ZM24.9883 34.552C22.945 34.552 20.9018 34.0223 19.1613 32.9628L18.7072 32.7358L14.318 33.8709L15.4531 29.5574L15.1504 29.1034C11.8207 23.7304 13.4099 16.6169 18.8586 13.2872C24.3072 9.95743 31.345 11.5466 34.6748 16.9953C38.0045 22.4439 36.4153 29.4818 30.9667 32.8115C29.2261 33.9466 27.1072 34.552 24.9883 34.552ZM31.6477 26.152L30.8153 25.7736C30.8153 25.7736 29.6045 25.2439 28.8477 24.8655C28.7721 24.8655 28.6964 24.7899 28.6207 24.7899C28.3937 24.7899 28.2423 24.8655 28.091 24.9412C28.091 24.9412 28.0153 25.0169 26.9558 26.2277C26.8802 26.3791 26.7288 26.4547 26.5775 26.4547H26.5018C26.4261 26.4547 26.2748 26.3791 26.1991 26.3034L25.8207 26.152C24.9883 25.7736 24.2315 25.3196 23.6261 24.7142C23.4748 24.5628 23.2477 24.4115 23.0964 24.2601C22.5667 23.7304 22.0369 23.125 21.6586 22.4439L21.5829 22.2926C21.5072 22.2169 21.5072 22.1412 21.4315 21.9899C21.4315 21.8385 21.4315 21.6872 21.5072 21.6115C21.5072 21.6115 21.8099 21.2331 22.0369 21.0061C22.1883 20.8547 22.264 20.6277 22.4153 20.4764C22.5667 20.2493 22.6423 19.9466 22.5667 19.7196C22.491 19.3412 21.5829 17.298 21.3558 16.8439C21.2045 16.6169 21.0531 16.5412 20.8261 16.4655H20.5991C20.4477 16.4655 20.2207 16.4655 19.9937 16.4655C19.8423 16.4655 19.691 16.5412 19.5396 16.5412L19.464 16.6169C19.3126 16.6926 19.1613 16.8439 19.0099 16.9196C18.8586 17.0709 18.7829 17.2223 18.6315 17.3736C18.1018 18.0547 17.7991 18.8872 17.7991 19.7196C17.7991 20.325 17.9504 20.9304 18.1775 21.4601L18.2531 21.6872C18.9342 23.125 19.8423 24.4115 21.0531 25.5466L21.3558 25.8493C21.5829 26.0764 21.8099 26.2277 21.9613 26.4547C23.5504 27.8169 25.3667 28.8007 27.4099 29.3304C27.6369 29.4061 27.9396 29.4061 28.1667 29.4818C28.3937 29.4818 28.6964 29.4818 28.9234 29.4818C29.3018 29.4818 29.7558 29.3304 30.0586 29.1791C30.2856 29.0277 30.4369 29.0277 30.5883 28.8764L30.7396 28.725C30.891 28.5736 31.0423 28.498 31.1937 28.3466C31.345 28.1953 31.4964 28.0439 31.5721 27.8926C31.7234 27.5899 31.7991 27.2115 31.8748 26.8331C31.8748 26.6818 31.8748 26.4547 31.8748 26.3034C31.8748 26.3034 31.7991 26.2277 31.6477 26.152Z" fill="white"/>
</g>
</svg>
