<svg width="31" height="31" viewBox="0 0 31 31" fill="none" xmlns="http://www.w3.org/2000/svg">
<g id="Frame 71">
<rect width="31" height="31" rx="6" fill="#3E81C5" fill-opacity="0.7"/>
<g id="Vector">
<path d="M8.51265 20.0146C8.51265 20.2346 8.69056 20.4153 8.91563 20.424L10.1169 20.47C11.889 20.5212 13.3989 20.7772 14.8354 21.2482L15.1893 21.3674C15.4623 21.4594 15.7465 21.2607 15.7454 20.9786L15.7267 16.1177L15.6969 10.9713C15.6959 10.7969 15.582 10.6422 15.4129 10.5859L14.804 10.383C13.2836 9.8812 12.0568 9.67638 10.2218 9.61494L8.9475 9.56913C8.70997 9.56059 8.51265 9.74634 8.51265 9.97848V20.0146Z" fill="white"/>
<path d="M20.0048 9.74807C19.0507 9.89143 18.0231 10.1474 17.006 10.4854L16.709 10.5856C16.5413 10.6422 16.4282 10.7957 16.4265 10.9689L16.3769 16.128C16.3349 20.9308 16.3454 21.5657 16.4817 21.5043C18.1384 20.8898 19.9314 20.5416 21.9656 20.47L23.2085 20.4236C23.4337 20.4152 23.6119 20.2344 23.6119 20.0142V9.99708C23.6119 9.76959 23.4221 9.58568 23.1891 9.58747L22.2802 9.59446C21.5357 9.6047 20.5186 9.66614 20.0048 9.74807Z" fill="white"/>
<path d="M6.83496 21.4623C6.83496 21.6889 7.02339 21.8725 7.25545 21.8719L10.9558 21.8627H14.4029C14.525 21.8627 14.5528 21.6956 14.437 21.6579C12.9585 21.197 11.7736 21.023 9.82334 20.9922L8.34589 20.9682C8.11799 20.9645 7.93484 20.7837 7.93346 20.5611L7.90449 15.8822L7.8852 11.2211C7.88427 10.9955 7.69676 10.8131 7.46578 10.8131H7.25438C7.02274 10.8131 6.83496 10.9965 6.83496 11.2227V21.4623Z" fill="white"/>
<path d="M24.22 15.8822L24.191 20.5611C24.1896 20.7837 24.0065 20.9645 23.7786 20.9682L22.3011 20.9922C20.3508 21.023 19.166 21.197 17.6875 21.6579C17.5717 21.6956 17.5994 21.8627 17.7215 21.8627H21.1792L24.869 21.8719C25.1011 21.8725 25.2895 21.6889 25.2895 21.4623V11.2227C25.2895 10.9965 25.1017 10.8131 24.8701 10.8131H24.6587C24.4277 10.8131 24.2402 10.9955 24.2393 11.2211L24.22 15.8822Z" fill="white"/>
<path d="M15.8001 16.1382C15.8001 19.1489 15.8106 20.388 15.8211 18.8724C15.842 17.3671 15.842 14.9093 15.8211 13.3937C15.8106 11.8883 15.8001 13.1275 15.8001 16.1382Z" fill="white"/>
<path d="M16.3244 16.087C16.3244 19.067 16.3349 20.2754 16.3453 18.77C16.3663 17.2544 16.3663 14.8172 16.3453 13.3425C16.3349 11.8679 16.3244 13.0967 16.3244 16.087Z" fill="white"/>
</g>
</g>
</svg>
